# xmcd
#
# Track frame offsets: 
#        150
#        30205
#        53770
#        75175
#        102343
#        127315
#        152640
#        175355
#        196013
#        225995
#
# Disc length: 3342 seconds
#
# Revision: 0
# Processed by: cddbd v1.5.2PL0 Copyright (c) Steve Scherf et al.
# Submitted via: ExactAudioCopy v1.0b3
#
DISCID=6b0d0c0a
DTITLE=Tuan Vu - Nhac Yeu Cau 1
DYEAR=1991
DGENRE=
TTITLE0=Muoi nam tinh cu
TTITLE1=Nha anh nha em
TTITLE2=LK Nguoi yeu co don, Lanh tron dem mua
TTITLE3=Giot le sau
TTITLE4=Nguoi tinh La Lan
TTITLE5=Yeu mot minh
TTITLE6=Sau le bong
TTITLE7=Sau dong
TTITLE8=Tinh nhu may khoi
TTITLE9=Vet thuong cuoi cung
EXTD=
EXTT0=
EXTT1=
EXTT2=
EXTT3=
EXTT4=
EXTT5=
EXTT6=
EXTT7=
EXTT8=
EXTT9=
PLAYORDER=
